# xmcd
# 
# Track frame offsets:
#     150
#     17540
#     34270
#     47733
#     60221
#     77561
#     92637
#     114824
#     128420
#     142428
#     156493
# 
# Disc length: 2266
# 
# Revision: 0
# Processed by: cddbd v1.5.2PL0 Copyright (c) Steve Scherf et al.
# Submitted via: fre:ac v1.1beta1pre5
# 
DISCID=8408d80b
DTITLE=Raging Slab - Raging Slab
DYEAR=1989
DGENRE=Rock
TTITLE0=Don't Dog Me
TTITLE1=Joy Ride
TTITLE2=Sorry's All I Got
TTITLE3=Waiting For The Potion
TTITLE4=Get Off My Jollies
TTITLE5=Shiny Mama
TTITLE6=Geronimo
TTITLE7=Bent For Silver
TTITLE8=Love Comes Loose
TTITLE9=Dig A Hole
TTITLE10=San Loco
EXTD=2001 remaster
EXTT0=
EXTT1=
EXTT2=
EXTT3=
EXTT4=
EXTT5=
EXTT6=
EXTT7=
EXTT8=
EXTT9=
EXTT10=
PLAYORDER=
